<mxfile host="Electron" modified="2024-08-13T16:54:27.423Z" agent="Mozilla/5.0 (X11; Linux x86_64) AppleWebKit/537.36 (KHTML, like Gecko) draw.io/24.6.4 Chrome/124.0.6367.243 Electron/30.2.0 Safari/537.36" etag="uTzO5lsj2R-VRFlPA7o0" version="24.6.4" type="device">
  <diagram name="Page-1" id="Huvc_epTl2GeRZDboPI5">
    <mxGraphModel dx="1770" dy="1068" grid="1" gridSize="10" guides="1" tooltips="1" connect="1" arrows="1" fold="1" page="1" pageScale="1" pageWidth="850" pageHeight="1100" math="1" shadow="0">
      <root>
        <mxCell id="0" />
        <mxCell id="1" parent="0" />
        <mxCell id="Qdi247grOmWhZG3LN0WY-2" value="`0`" style="rounded=0;whiteSpace=wrap;html=1;fontSize=16;" parent="1" vertex="1">
          <mxGeometry x="240" y="440" width="40" height="40" as="geometry" />
        </mxCell>
        <mxCell id="Qdi247grOmWhZG3LN0WY-3" value="`2`" style="rounded=0;whiteSpace=wrap;html=1;fontSize=16;" parent="1" vertex="1">
          <mxGeometry x="300" y="440" width="40" height="40" as="geometry" />
        </mxCell>
        <mxCell id="Qdi247grOmWhZG3LN0WY-4" value="`1`" style="rounded=0;whiteSpace=wrap;html=1;fontSize=16;" parent="1" vertex="1">
          <mxGeometry x="360" y="440" width="40" height="40" as="geometry" />
        </mxCell>
        <mxCell id="Qdi247grOmWhZG3LN0WY-5" value="`3`" style="rounded=0;whiteSpace=wrap;html=1;fontSize=16;" parent="1" vertex="1">
          <mxGeometry x="420" y="440" width="40" height="40" as="geometry" />
        </mxCell>
        <mxCell id="Qdi247grOmWhZG3LN0WY-6" value="`1`" style="rounded=0;whiteSpace=wrap;html=1;fontSize=16;" parent="1" vertex="1">
          <mxGeometry x="480" y="440" width="40" height="40" as="geometry" />
        </mxCell>
        <mxCell id="Qdi247grOmWhZG3LN0WY-7" value="`2`" style="rounded=0;whiteSpace=wrap;html=1;fontSize=16;" parent="1" vertex="1">
          <mxGeometry x="540" y="440" width="40" height="40" as="geometry" />
        </mxCell>
        <mxCell id="Qdi247grOmWhZG3LN0WY-8" value="`0`" style="rounded=0;whiteSpace=wrap;html=1;fontSize=16;" parent="1" vertex="1">
          <mxGeometry x="600" y="440" width="40" height="40" as="geometry" />
        </mxCell>
        <mxCell id="Qdi247grOmWhZG3LN0WY-10" value="`0`" style="rounded=0;whiteSpace=wrap;html=1;fontSize=16;" parent="1" vertex="1">
          <mxGeometry x="240" y="560" width="40" height="40" as="geometry" />
        </mxCell>
        <mxCell id="Qdi247grOmWhZG3LN0WY-11" value="`2`" style="rounded=0;whiteSpace=wrap;html=1;fontSize=16;" parent="1" vertex="1">
          <mxGeometry x="300" y="560" width="40" height="40" as="geometry" />
        </mxCell>
        <mxCell id="Qdi247grOmWhZG3LN0WY-12" value="`1`" style="rounded=0;whiteSpace=wrap;html=1;fontSize=16;" parent="1" vertex="1">
          <mxGeometry x="360" y="560" width="40" height="40" as="geometry" />
        </mxCell>
        <mxCell id="Qdi247grOmWhZG3LN0WY-13" value="`3`" style="rounded=0;whiteSpace=wrap;html=1;fontSize=16;" parent="1" vertex="1">
          <mxGeometry x="420" y="560" width="40" height="40" as="geometry" />
        </mxCell>
        <mxCell id="Qdi247grOmWhZG3LN0WY-14" value="`1`" style="rounded=0;whiteSpace=wrap;html=1;fontSize=16;" parent="1" vertex="1">
          <mxGeometry x="480" y="560" width="40" height="40" as="geometry" />
        </mxCell>
        <mxCell id="Qdi247grOmWhZG3LN0WY-15" value="`2`" style="rounded=0;whiteSpace=wrap;html=1;fontSize=16;" parent="1" vertex="1">
          <mxGeometry x="540" y="560" width="40" height="40" as="geometry" />
        </mxCell>
        <mxCell id="Qdi247grOmWhZG3LN0WY-16" value="`0`" style="rounded=0;whiteSpace=wrap;html=1;fontSize=16;" parent="1" vertex="1">
          <mxGeometry x="600" y="560" width="40" height="40" as="geometry" />
        </mxCell>
        <mxCell id="Qdi247grOmWhZG3LN0WY-20" value="2 番目の bit" style="text;html=1;align=center;verticalAlign=middle;whiteSpace=wrap;rounded=0;fontSize=16;" parent="1" vertex="1">
          <mxGeometry x="135" y="525" width="90" height="30" as="geometry" />
        </mxCell>
        <mxCell id="Qdi247grOmWhZG3LN0WY-22" value="`0`" style="rounded=0;whiteSpace=wrap;html=1;fontSize=16;" parent="1" vertex="1">
          <mxGeometry x="240" y="680" width="40" height="40" as="geometry" />
        </mxCell>
        <mxCell id="Qdi247grOmWhZG3LN0WY-23" value="`1`" style="rounded=0;whiteSpace=wrap;html=1;fontSize=16;" parent="1" vertex="1">
          <mxGeometry x="300" y="680" width="40" height="40" as="geometry" />
        </mxCell>
        <mxCell id="Qdi247grOmWhZG3LN0WY-24" value="`1`" style="rounded=0;whiteSpace=wrap;html=1;fontSize=16;" parent="1" vertex="1">
          <mxGeometry x="360" y="680" width="40" height="40" as="geometry" />
        </mxCell>
        <mxCell id="Qdi247grOmWhZG3LN0WY-25" value="`0`" style="rounded=0;whiteSpace=wrap;html=1;fontSize=16;" parent="1" vertex="1">
          <mxGeometry x="420" y="680" width="40" height="40" as="geometry" />
        </mxCell>
        <mxCell id="Qdi247grOmWhZG3LN0WY-26" value="`2`" style="rounded=0;whiteSpace=wrap;html=1;fontSize=16;" parent="1" vertex="1">
          <mxGeometry x="480" y="680" width="40" height="40" as="geometry" />
        </mxCell>
        <mxCell id="Qdi247grOmWhZG3LN0WY-27" value="`3`" style="rounded=0;whiteSpace=wrap;html=1;fontSize=16;" parent="1" vertex="1">
          <mxGeometry x="540" y="680" width="40" height="40" as="geometry" />
        </mxCell>
        <mxCell id="Qdi247grOmWhZG3LN0WY-28" value="`2`" style="rounded=0;whiteSpace=wrap;html=1;fontSize=16;" parent="1" vertex="1">
          <mxGeometry x="600" y="680" width="40" height="40" as="geometry" />
        </mxCell>
        <mxCell id="Qdi247grOmWhZG3LN0WY-30" value="`0`" style="rounded=0;whiteSpace=wrap;html=1;fontSize=16;fillColor=#f8cecc;strokeColor=#b85450;" parent="1" vertex="1">
          <mxGeometry x="240" y="520" width="40" height="40" as="geometry" />
        </mxCell>
        <mxCell id="Qdi247grOmWhZG3LN0WY-31" value="`0`" style="rounded=0;whiteSpace=wrap;html=1;fontSize=16;fillColor=#f8cecc;strokeColor=#b85450;" parent="1" vertex="1">
          <mxGeometry x="300" y="520" width="40" height="40" as="geometry" />
        </mxCell>
        <mxCell id="Qdi247grOmWhZG3LN0WY-32" value="`0`" style="rounded=0;whiteSpace=wrap;html=1;fontSize=16;fillColor=#f8cecc;strokeColor=#b85450;" parent="1" vertex="1">
          <mxGeometry x="360" y="520" width="40" height="40" as="geometry" />
        </mxCell>
        <mxCell id="Qdi247grOmWhZG3LN0WY-33" value="`0`" style="rounded=0;whiteSpace=wrap;html=1;fontSize=16;fillColor=#f8cecc;strokeColor=#b85450;" parent="1" vertex="1">
          <mxGeometry x="420" y="520" width="40" height="40" as="geometry" />
        </mxCell>
        <mxCell id="Qdi247grOmWhZG3LN0WY-34" value="`0`" style="rounded=0;whiteSpace=wrap;html=1;fontSize=16;fillColor=#f8cecc;strokeColor=#b85450;" parent="1" vertex="1">
          <mxGeometry x="480" y="520" width="40" height="40" as="geometry" />
        </mxCell>
        <mxCell id="Qdi247grOmWhZG3LN0WY-35" value="`0`" style="rounded=0;whiteSpace=wrap;html=1;fontSize=16;fillColor=#f8cecc;strokeColor=#b85450;" parent="1" vertex="1">
          <mxGeometry x="540" y="520" width="40" height="40" as="geometry" />
        </mxCell>
        <mxCell id="Qdi247grOmWhZG3LN0WY-36" value="`0`" style="rounded=0;whiteSpace=wrap;html=1;fontSize=16;fillColor=#f8cecc;strokeColor=#b85450;" parent="1" vertex="1">
          <mxGeometry x="600" y="520" width="40" height="40" as="geometry" />
        </mxCell>
        <mxCell id="Qdi247grOmWhZG3LN0WY-37" value="`0`" style="rounded=0;whiteSpace=wrap;html=1;fontSize=16;fillColor=#f8cecc;strokeColor=#b85450;" parent="1" vertex="1">
          <mxGeometry x="240" y="640" width="40" height="40" as="geometry" />
        </mxCell>
        <mxCell id="Qdi247grOmWhZG3LN0WY-38" value="`0`" style="rounded=0;whiteSpace=wrap;html=1;fontSize=16;fillColor=#f8cecc;strokeColor=#b85450;" parent="1" vertex="1">
          <mxGeometry x="300" y="640" width="40" height="40" as="geometry" />
        </mxCell>
        <mxCell id="Qdi247grOmWhZG3LN0WY-39" value="`0`" style="rounded=0;whiteSpace=wrap;html=1;fontSize=16;fillColor=#f8cecc;strokeColor=#b85450;" parent="1" vertex="1">
          <mxGeometry x="360" y="640" width="40" height="40" as="geometry" />
        </mxCell>
        <mxCell id="Qdi247grOmWhZG3LN0WY-40" value="`0`" style="rounded=0;whiteSpace=wrap;html=1;fontSize=16;fillColor=#f8cecc;strokeColor=#b85450;" parent="1" vertex="1">
          <mxGeometry x="420" y="640" width="40" height="40" as="geometry" />
        </mxCell>
        <mxCell id="Qdi247grOmWhZG3LN0WY-41" value="`1`" style="rounded=0;whiteSpace=wrap;html=1;fontSize=16;fillColor=#dae8fc;strokeColor=#6c8ebf;" parent="1" vertex="1">
          <mxGeometry x="480" y="640" width="40" height="40" as="geometry" />
        </mxCell>
        <mxCell id="Qdi247grOmWhZG3LN0WY-42" value="`1`" style="rounded=0;whiteSpace=wrap;html=1;fontSize=16;fillColor=#dae8fc;strokeColor=#6c8ebf;" parent="1" vertex="1">
          <mxGeometry x="540" y="640" width="40" height="40" as="geometry" />
        </mxCell>
        <mxCell id="Qdi247grOmWhZG3LN0WY-43" value="`1`" style="rounded=0;whiteSpace=wrap;html=1;fontSize=16;fillColor=#dae8fc;strokeColor=#6c8ebf;" parent="1" vertex="1">
          <mxGeometry x="600" y="640" width="40" height="40" as="geometry" />
        </mxCell>
        <mxCell id="Qdi247grOmWhZG3LN0WY-44" value="`0`" style="rounded=0;whiteSpace=wrap;html=1;fontSize=16;" parent="1" vertex="1">
          <mxGeometry x="240" y="800" width="40" height="40" as="geometry" />
        </mxCell>
        <mxCell id="Qdi247grOmWhZG3LN0WY-45" value="`1`" style="rounded=0;whiteSpace=wrap;html=1;fontSize=16;" parent="1" vertex="1">
          <mxGeometry x="480" y="800" width="40" height="40" as="geometry" />
        </mxCell>
        <mxCell id="Qdi247grOmWhZG3LN0WY-46" value="`1`" style="rounded=0;whiteSpace=wrap;html=1;fontSize=16;" parent="1" vertex="1">
          <mxGeometry x="540" y="800" width="40" height="40" as="geometry" />
        </mxCell>
        <mxCell id="Qdi247grOmWhZG3LN0WY-47" value="`0`" style="rounded=0;whiteSpace=wrap;html=1;fontSize=16;" parent="1" vertex="1">
          <mxGeometry x="300" y="800" width="40" height="40" as="geometry" />
        </mxCell>
        <mxCell id="Qdi247grOmWhZG3LN0WY-48" value="`2`" style="rounded=0;whiteSpace=wrap;html=1;fontSize=16;" parent="1" vertex="1">
          <mxGeometry x="360" y="800" width="40" height="40" as="geometry" />
        </mxCell>
        <mxCell id="Qdi247grOmWhZG3LN0WY-49" value="`3`" style="rounded=0;whiteSpace=wrap;html=1;fontSize=16;" parent="1" vertex="1">
          <mxGeometry x="600" y="800" width="40" height="40" as="geometry" />
        </mxCell>
        <mxCell id="Qdi247grOmWhZG3LN0WY-50" value="`2`" style="rounded=0;whiteSpace=wrap;html=1;fontSize=16;" parent="1" vertex="1">
          <mxGeometry x="420" y="800" width="40" height="40" as="geometry" />
        </mxCell>
        <mxCell id="Qdi247grOmWhZG3LN0WY-52" value="`0`" style="rounded=0;whiteSpace=wrap;html=1;fontSize=16;fillColor=#f8cecc;strokeColor=#b85450;" parent="1" vertex="1">
          <mxGeometry x="240" y="760" width="40" height="40" as="geometry" />
        </mxCell>
        <mxCell id="Qdi247grOmWhZG3LN0WY-53" value="`0`" style="rounded=0;whiteSpace=wrap;html=1;fontSize=16;fillColor=#f8cecc;strokeColor=#b85450;" parent="1" vertex="1">
          <mxGeometry x="300" y="760" width="40" height="40" as="geometry" />
        </mxCell>
        <mxCell id="Qdi247grOmWhZG3LN0WY-54" value="`0`" style="rounded=0;whiteSpace=wrap;html=1;fontSize=16;fillColor=#f8cecc;strokeColor=#b85450;" parent="1" vertex="1">
          <mxGeometry x="360" y="760" width="40" height="40" as="geometry" />
        </mxCell>
        <mxCell id="Qdi247grOmWhZG3LN0WY-55" value="`0`" style="rounded=0;whiteSpace=wrap;html=1;fontSize=16;fillColor=#f8cecc;strokeColor=#b85450;" parent="1" vertex="1">
          <mxGeometry x="420" y="760" width="40" height="40" as="geometry" />
        </mxCell>
        <mxCell id="Qdi247grOmWhZG3LN0WY-56" value="`1`" style="rounded=0;whiteSpace=wrap;html=1;fontSize=16;fillColor=#dae8fc;strokeColor=#6c8ebf;" parent="1" vertex="1">
          <mxGeometry x="480" y="760" width="40" height="40" as="geometry" />
        </mxCell>
        <mxCell id="Qdi247grOmWhZG3LN0WY-57" value="`1`" style="rounded=0;whiteSpace=wrap;html=1;fontSize=16;fillColor=#dae8fc;strokeColor=#6c8ebf;" parent="1" vertex="1">
          <mxGeometry x="540" y="760" width="40" height="40" as="geometry" />
        </mxCell>
        <mxCell id="Qdi247grOmWhZG3LN0WY-58" value="`1`" style="rounded=0;whiteSpace=wrap;html=1;fontSize=16;fillColor=#dae8fc;strokeColor=#6c8ebf;" parent="1" vertex="1">
          <mxGeometry x="600" y="760" width="40" height="40" as="geometry" />
        </mxCell>
        <mxCell id="Qdi247grOmWhZG3LN0WY-59" value="2 番目の bit でソート" style="text;html=1;align=center;verticalAlign=middle;whiteSpace=wrap;rounded=0;fontSize=16;" parent="1" vertex="1">
          <mxGeometry x="70" y="565" width="155" height="30" as="geometry" />
        </mxCell>
        <mxCell id="Qdi247grOmWhZG3LN0WY-60" value="1 番目の bit" style="text;html=1;align=center;verticalAlign=middle;whiteSpace=wrap;rounded=0;fontSize=16;" parent="1" vertex="1">
          <mxGeometry x="135" y="645" width="90" height="30" as="geometry" />
        </mxCell>
        <mxCell id="Qdi247grOmWhZG3LN0WY-61" value="1 番目の bit でソート" style="text;html=1;align=center;verticalAlign=middle;whiteSpace=wrap;rounded=0;fontSize=16;" parent="1" vertex="1">
          <mxGeometry x="70" y="685" width="155" height="30" as="geometry" />
        </mxCell>
        <mxCell id="Qdi247grOmWhZG3LN0WY-62" value="0 番目の bit" style="text;html=1;align=center;verticalAlign=middle;whiteSpace=wrap;rounded=0;fontSize=16;" parent="1" vertex="1">
          <mxGeometry x="135" y="765" width="90" height="30" as="geometry" />
        </mxCell>
        <mxCell id="Qdi247grOmWhZG3LN0WY-63" value="0 番目の bit でソート" style="text;html=1;align=center;verticalAlign=middle;whiteSpace=wrap;rounded=0;fontSize=16;" parent="1" vertex="1">
          <mxGeometry x="70" y="805" width="155" height="30" as="geometry" />
        </mxCell>
        <mxCell id="Mx3xclYzz4wtysm5yn1y-1" value="" style="endArrow=classic;startArrow=classic;html=1;rounded=0;" edge="1" parent="1">
          <mxGeometry width="50" height="50" relative="1" as="geometry">
            <mxPoint x="300" y="430" as="sourcePoint" />
            <mxPoint x="580" y="430" as="targetPoint" />
          </mxGeometry>
        </mxCell>
        <mxCell id="Mx3xclYzz4wtysm5yn1y-2" value="" style="endArrow=classic;startArrow=classic;html=1;rounded=0;" edge="1" parent="1">
          <mxGeometry width="50" height="50" relative="1" as="geometry">
            <mxPoint x="300" y="510" as="sourcePoint" />
            <mxPoint x="580" y="510" as="targetPoint" />
          </mxGeometry>
        </mxCell>
        <mxCell id="Mx3xclYzz4wtysm5yn1y-4" value="`fold(l, r, upper)`" style="text;html=1;align=center;verticalAlign=middle;whiteSpace=wrap;rounded=0;fontSize=24;" vertex="1" parent="1">
          <mxGeometry x="10" y="390" width="190" height="30" as="geometry" />
        </mxCell>
        <mxCell id="Mx3xclYzz4wtysm5yn1y-5" value="" style="endArrow=classic;startArrow=classic;html=1;rounded=0;" edge="1" parent="1">
          <mxGeometry width="50" height="50" relative="1" as="geometry">
            <mxPoint x="480" y="630" as="sourcePoint" />
            <mxPoint x="640" y="630" as="targetPoint" />
          </mxGeometry>
        </mxCell>
        <mxCell id="Mx3xclYzz4wtysm5yn1y-6" value="&lt;div&gt;- [`l, r) = [1, 6)`&lt;/div&gt;- `upper = 3`&amp;nbsp; &amp;nbsp; の場合" style="text;html=1;align=left;verticalAlign=middle;whiteSpace=wrap;rounded=0;fontSize=16;" vertex="1" parent="1">
          <mxGeometry x="57.5" y="440" width="180" height="50" as="geometry" />
        </mxCell>
        <mxCell id="Mx3xclYzz4wtysm5yn1y-7" value="" style="endArrow=classic;startArrow=classic;html=1;rounded=0;" edge="1" parent="1">
          <mxGeometry width="50" height="50" relative="1" as="geometry">
            <mxPoint x="300" y="630" as="sourcePoint" />
            <mxPoint x="397" y="630" as="targetPoint" />
          </mxGeometry>
        </mxCell>
        <mxCell id="Mx3xclYzz4wtysm5yn1y-9" value="`fold!`" style="text;html=1;align=center;verticalAlign=middle;whiteSpace=wrap;rounded=0;fontSize=16;" vertex="1" parent="1">
          <mxGeometry x="310" y="600" width="90" height="30" as="geometry" />
        </mxCell>
        <mxCell id="Mx3xclYzz4wtysm5yn1y-10" value="`fold!`" style="text;html=1;align=center;verticalAlign=middle;whiteSpace=wrap;rounded=0;fontSize=16;" vertex="1" parent="1">
          <mxGeometry x="370" y="720" width="90" height="30" as="geometry" />
        </mxCell>
        <mxCell id="Mx3xclYzz4wtysm5yn1y-11" value="" style="endArrow=classic;startArrow=classic;html=1;rounded=0;" edge="1" parent="1">
          <mxGeometry width="50" height="50" relative="1" as="geometry">
            <mxPoint x="360" y="750" as="sourcePoint" />
            <mxPoint x="457" y="750" as="targetPoint" />
          </mxGeometry>
        </mxCell>
        <mxCell id="Mx3xclYzz4wtysm5yn1y-12" value="`upper` の各行 bit に応じて下へ降りる" style="text;html=1;align=center;verticalAlign=middle;whiteSpace=wrap;rounded=0;fontSize=16;" vertex="1" parent="1">
          <mxGeometry x="270" y="390" width="340" height="30" as="geometry" />
        </mxCell>
        <mxCell id="Mx3xclYzz4wtysm5yn1y-13" value="" style="endArrow=classic;startArrow=classic;html=1;rounded=0;" edge="1" parent="1">
          <mxGeometry width="50" height="50" relative="1" as="geometry">
            <mxPoint x="600" y="750" as="sourcePoint" />
            <mxPoint x="640" y="750" as="targetPoint" />
          </mxGeometry>
        </mxCell>
        <mxCell id="Mx3xclYzz4wtysm5yn1y-14" value="- 区間中の `y \lt upper` な `y` は最下段までに左へ移動する&lt;br&gt;&lt;div&gt;&lt;span style=&quot;background-color: initial;&quot;&gt;- 区間中の `y \gt upper` な `y` はどこかで `upper` が左へ移動する際に右へ移動する&lt;/span&gt;&lt;/div&gt;&lt;div&gt;&lt;span style=&quot;background-color: initial;&quot;&gt;&lt;br&gt;&lt;/span&gt;&lt;/div&gt;&lt;div&gt;&lt;span style=&quot;background-color: initial;&quot;&gt;よって `upper` が右へ移動した際に左へ移動した要素のみを畳み込めば良い。&lt;/span&gt;&lt;span style=&quot;background-color: initial;&quot;&gt;ただし `N` が 2 べきの場合は `upper = N` で全 bit `0` になるため、特別な処置が必要&lt;/span&gt;&lt;/div&gt;" style="text;html=1;align=left;verticalAlign=middle;whiteSpace=wrap;rounded=0;fontSize=16;" vertex="1" parent="1">
          <mxGeometry x="140" y="850" width="618" height="120" as="geometry" />
        </mxCell>
        <mxCell id="Mx3xclYzz4wtysm5yn1y-16" value="`testBit\ upper\ 2 = True` より右へ降りる" style="text;html=1;align=left;verticalAlign=middle;whiteSpace=wrap;rounded=0;fontSize=16;" vertex="1" parent="1">
          <mxGeometry x="290" y="470" width="340" height="50" as="geometry" />
        </mxCell>
        <mxCell id="Mx3xclYzz4wtysm5yn1y-17" value="`testBit\ upper\ 1 = True`" style="text;html=1;align=left;verticalAlign=middle;whiteSpace=wrap;rounded=0;fontSize=16;" vertex="1" parent="1">
          <mxGeometry x="500" y="590" width="210" height="50" as="geometry" />
        </mxCell>
        <mxCell id="Mx3xclYzz4wtysm5yn1y-18" value="`end`" style="text;html=1;align=left;verticalAlign=middle;whiteSpace=wrap;rounded=0;fontSize=16;" vertex="1" parent="1">
          <mxGeometry x="600" y="710" width="50" height="50" as="geometry" />
        </mxCell>
      </root>
    </mxGraphModel>
  </diagram>
</mxfile>
